<mxfile host="app.diagrams.net" modified="2023-04-24T09:47:49.752Z" agent="Mozilla/5.0 (Windows NT 10.0; Win64; x64) AppleWebKit/537.36 (KHTML, like Gecko) Chrome/112.0.0.0 Safari/537.36" etag="mnTcp8uTry1zkdjJOLPr" version="21.2.1" type="device">
  <diagram name="Page-1" id="6uoeZqA5vn3seBlZTaUI">
    <mxGraphModel dx="1912" dy="1019" grid="1" gridSize="10" guides="1" tooltips="1" connect="1" arrows="1" fold="1" page="1" pageScale="1" pageWidth="1169" pageHeight="827" math="0" shadow="0">
      <root>
        <mxCell id="0" />
        <mxCell id="1" parent="0" />
        <mxCell id="kZ6KtNTxzDlfgTODtRRB-1" value="&lt;font style=&quot;font-size: 25px;&quot;&gt;DB (MongoDB)&lt;br&gt;&lt;br&gt;Name :&amp;nbsp;Ecommerce&lt;/font&gt;" style="rounded=0;whiteSpace=wrap;html=1;align=center;verticalAlign=top;" vertex="1" parent="1">
          <mxGeometry x="1570" y="284" width="300" height="130" as="geometry" />
        </mxCell>
        <mxCell id="kZ6KtNTxzDlfgTODtRRB-2" value="&lt;font style=&quot;font-size: 25px;&quot;&gt;Collection&amp;nbsp;&lt;br&gt;&lt;br&gt;Name : User&lt;/font&gt;" style="rounded=0;whiteSpace=wrap;html=1;" vertex="1" parent="1">
          <mxGeometry x="1300" y="210" width="170" height="110" as="geometry" />
        </mxCell>
        <mxCell id="kZ6KtNTxzDlfgTODtRRB-3" value="&lt;font style=&quot;font-size: 25px;&quot;&gt;Collection&amp;nbsp;&lt;br&gt;&lt;br&gt;Name : Product&lt;/font&gt;" style="rounded=0;whiteSpace=wrap;html=1;" vertex="1" parent="1">
          <mxGeometry x="1280" y="370" width="190" height="120" as="geometry" />
        </mxCell>
        <mxCell id="kZ6KtNTxzDlfgTODtRRB-7" value="" style="endArrow=classic;html=1;rounded=0;exitX=0;exitY=0.5;exitDx=0;exitDy=0;entryX=1;entryY=0.5;entryDx=0;entryDy=0;" edge="1" parent="1" source="kZ6KtNTxzDlfgTODtRRB-1" target="kZ6KtNTxzDlfgTODtRRB-2">
          <mxGeometry width="50" height="50" relative="1" as="geometry">
            <mxPoint x="1190" y="190" as="sourcePoint" />
            <mxPoint x="1240" y="140" as="targetPoint" />
          </mxGeometry>
        </mxCell>
        <mxCell id="kZ6KtNTxzDlfgTODtRRB-8" value="" style="endArrow=classic;html=1;rounded=0;exitX=0;exitY=0.5;exitDx=0;exitDy=0;entryX=1;entryY=0.5;entryDx=0;entryDy=0;" edge="1" parent="1" source="kZ6KtNTxzDlfgTODtRRB-1" target="kZ6KtNTxzDlfgTODtRRB-3">
          <mxGeometry width="50" height="50" relative="1" as="geometry">
            <mxPoint x="1190" y="190" as="sourcePoint" />
            <mxPoint x="1240" y="140" as="targetPoint" />
          </mxGeometry>
        </mxCell>
        <mxCell id="kZ6KtNTxzDlfgTODtRRB-10" value="" style="endArrow=classic;html=1;rounded=0;exitX=0;exitY=0.5;exitDx=0;exitDy=0;entryX=1;entryY=0.5;entryDx=0;entryDy=0;" edge="1" parent="1" source="kZ6KtNTxzDlfgTODtRRB-2" target="kZ6KtNTxzDlfgTODtRRB-13">
          <mxGeometry width="50" height="50" relative="1" as="geometry">
            <mxPoint x="1040" y="180" as="sourcePoint" />
            <mxPoint x="1180" y="194" as="targetPoint" />
          </mxGeometry>
        </mxCell>
        <mxCell id="kZ6KtNTxzDlfgTODtRRB-11" value="" style="endArrow=classic;html=1;rounded=0;exitX=0;exitY=0.5;exitDx=0;exitDy=0;entryX=1;entryY=0.5;entryDx=0;entryDy=0;" edge="1" parent="1" source="kZ6KtNTxzDlfgTODtRRB-3" target="kZ6KtNTxzDlfgTODtRRB-13">
          <mxGeometry width="50" height="50" relative="1" as="geometry">
            <mxPoint x="1040" y="180" as="sourcePoint" />
            <mxPoint x="1180" y="194" as="targetPoint" />
          </mxGeometry>
        </mxCell>
        <mxCell id="kZ6KtNTxzDlfgTODtRRB-13" value="&lt;font style=&quot;font-size: 25px;&quot;&gt;Repository (Interface)&lt;/font&gt;" style="rounded=0;whiteSpace=wrap;html=1;" vertex="1" parent="1">
          <mxGeometry x="980" y="285.5" width="200" height="90" as="geometry" />
        </mxCell>
        <mxCell id="kZ6KtNTxzDlfgTODtRRB-16" value="&lt;font style=&quot;font-size: 25px;&quot;&gt;Services (Interface)&lt;/font&gt;" style="rounded=0;whiteSpace=wrap;html=1;" vertex="1" parent="1">
          <mxGeometry x="690" y="290" width="210" height="81" as="geometry" />
        </mxCell>
        <mxCell id="kZ6KtNTxzDlfgTODtRRB-18" value="" style="endArrow=classic;html=1;rounded=0;entryX=1;entryY=0.5;entryDx=0;entryDy=0;" edge="1" parent="1" source="kZ6KtNTxzDlfgTODtRRB-13" target="kZ6KtNTxzDlfgTODtRRB-16">
          <mxGeometry width="50" height="50" relative="1" as="geometry">
            <mxPoint x="770" y="610" as="sourcePoint" />
            <mxPoint x="910" y="450" as="targetPoint" />
          </mxGeometry>
        </mxCell>
        <mxCell id="kZ6KtNTxzDlfgTODtRRB-22" style="edgeStyle=orthogonalEdgeStyle;rounded=0;orthogonalLoop=1;jettySize=auto;html=1;" edge="1" parent="1" source="kZ6KtNTxzDlfgTODtRRB-19" target="kZ6KtNTxzDlfgTODtRRB-21">
          <mxGeometry relative="1" as="geometry" />
        </mxCell>
        <mxCell id="kZ6KtNTxzDlfgTODtRRB-19" value="&lt;font style=&quot;font-size: 25px;&quot;&gt;Handler (interface)&lt;/font&gt;" style="rounded=0;whiteSpace=wrap;html=1;" vertex="1" parent="1">
          <mxGeometry x="420" y="290" width="190" height="80" as="geometry" />
        </mxCell>
        <mxCell id="kZ6KtNTxzDlfgTODtRRB-20" value="" style="endArrow=classic;html=1;rounded=0;exitX=0;exitY=0.5;exitDx=0;exitDy=0;" edge="1" parent="1" source="kZ6KtNTxzDlfgTODtRRB-16" target="kZ6KtNTxzDlfgTODtRRB-19">
          <mxGeometry width="50" height="50" relative="1" as="geometry">
            <mxPoint x="930" y="380" as="sourcePoint" />
            <mxPoint x="980" y="330" as="targetPoint" />
          </mxGeometry>
        </mxCell>
        <mxCell id="kZ6KtNTxzDlfgTODtRRB-21" value="&lt;font style=&quot;font-size: 25px;&quot;&gt;Rest API&amp;nbsp;&lt;/font&gt;" style="rounded=0;whiteSpace=wrap;html=1;" vertex="1" parent="1">
          <mxGeometry x="150" y="284" width="200" height="91" as="geometry" />
        </mxCell>
      </root>
    </mxGraphModel>
  </diagram>
</mxfile>
